HIERARCHY
ROOT Hips
{
    OFFSET   0.000000   0.000000   0.000000
    CHANNELS 6 Xposition Yposition Zposition Zrotation Xrotation Yrotation
    JOINT Chest
    {
        OFFSET   0.000000   8.007230   0.000000
        CHANNELS 3 Zrotation Xrotation Yrotation
        JOINT Chest2
        {
            OFFSET   0.000000  22.077100   0.000000
            CHANNELS 3 Zrotation Xrotation Yrotation
            JOINT Neck
            {
                OFFSET   0.000000  23.255100   0.000000
                CHANNELS 3 Zrotation Xrotation Yrotation
                JOINT Head
                {
                    OFFSET   0.000000  14.370100   1.956600
                    CHANNELS 3 Zrotation Xrotation Yrotation
                    End Site
                    {
                        OFFSET   0.000000  19.566000   0.000000
                    }
                }
            }
            JOINT LeftCollar
            {
                OFFSET   3.911900  19.017000  -0.467063
                CHANNELS 3 Zrotation Xrotation Yrotation
                JOINT LeftShoulder
                {
                    OFFSET  10.383700   0.000000   0.000000
                    CHANNELS 3 Zrotation Xrotation Yrotation
                    JOINT LeftElbow
                    {
                        OFFSET  26.662100   0.001193   0.000980
                        CHANNELS 3 Zrotation Xrotation Yrotation
                        JOINT LeftWrist
                        {
                            OFFSET  28.869000  -0.000059  -0.000082
                            CHANNELS 3 Zrotation Xrotation Yrotation
                            JOINT LeftFinger0
                            {
                                OFFSET   2.044650  -2.323450   3.252850
                                CHANNELS 3 Zrotation Xrotation Yrotation
                                JOINT LeftFinger01
                                {
                                    OFFSET   3.088130   0.000000   0.000000
                                    CHANNELS 3 Zrotation Xrotation Yrotation
                                    JOINT LeftFinger02
                                    {
                                        OFFSET   2.639460   0.000000   0.000000
                                        CHANNELS 3 Zrotation Xrotation Yrotation
                                        End Site
                                        {
                                            OFFSET   2.582190   0.000000   0.000000
                                        }
                                    }
                                }
                            }
                            JOINT LeftFinger1
                            {
                                OFFSET   8.364480   0.000000   3.252850
                                CHANNELS 3 Zrotation Xrotation Yrotation
                                JOINT LeftFinger11
                                {
                                    OFFSET   4.646930   0.000000   0.000000
                                    CHANNELS 3 Zrotation Xrotation Yrotation
                                    JOINT LeftFinger12
                                    {
                                        OFFSET   2.323470   0.000000   0.000000
                                        CHANNELS 3 Zrotation Xrotation Yrotation
                                        End Site
                                        {
                                            OFFSET   2.273050   0.000000   0.000000
                                        }
                                    }
                                }
                            }
                            JOINT LeftFinger2
                            {
                                OFFSET   8.364490   0.000016   1.078090
                                CHANNELS 3 Zrotation Xrotation Yrotation
                                JOINT LeftFinger21
                                {
                                    OFFSET   5.111610   0.000000   0.000000
                                    CHANNELS 3 Zrotation Xrotation Yrotation
                                    JOINT LeftFinger22
                                    {
                                        OFFSET   2.788150   0.000016   0.000000
                                        CHANNELS 3 Zrotation Xrotation Yrotation
                                        End Site
                                        {
                                            OFFSET   2.727660   0.000000   0.000000
                                        }
                                    }
                                }
                            }
                            JOINT LeftFinger3
                            {
                                OFFSET   7.899780   0.000015  -1.078090
                                CHANNELS 3 Zrotation Xrotation Yrotation
                                JOINT LeftFinger31
                                {
                                    OFFSET   4.646930   0.000000   0.000000
                                    CHANNELS 3 Zrotation Xrotation Yrotation
                                    JOINT LeftFinger32
                                    {
                                        OFFSET   2.323470   0.000000   0.000000
                                        CHANNELS 3 Zrotation Xrotation Yrotation
                                        End Site
                                        {
                                            OFFSET   2.273050   0.000000   0.000000
                                        }
                                    }
                                }
                            }
                            JOINT LeftFinger4
                            {
                                OFFSET   7.435090   0.000000  -3.252850
                                CHANNELS 3 Zrotation Xrotation Yrotation
                                JOINT LeftFinger41
                                {
                                    OFFSET   3.717550   0.000000   0.000000
                                    CHANNELS 3 Zrotation Xrotation Yrotation
                                    JOINT LeftFinger42
                                    {
                                        OFFSET   1.858770   0.000000   0.000000
                                        CHANNELS 3 Zrotation Xrotation Yrotation
                                        End Site
                                        {
                                            OFFSET   1.818440   0.000000   0.000000
                                        }
                                    }
                                }
                            }
                        }
                    }
                }
            }
            JOINT RightCollar
            {
                OFFSET  -3.911910  19.017000  -0.467062
                CHANNELS 3 Zrotation Xrotation Yrotation
                JOINT RightShoulder
                {
                    OFFSET -10.383700   0.000014   0.000000
                    CHANNELS 3 Zrotation Xrotation Yrotation
                    JOINT RightElbow
                    {
                        OFFSET -26.662100   0.001225   0.001091
                        CHANNELS 3 Zrotation Xrotation Yrotation
                        JOINT RightWrist
                        {
                            OFFSET -28.869000  -0.000020  -0.000085
                            CHANNELS 3 Zrotation Xrotation Yrotation
                            JOINT RightFinger0
                            {
                                OFFSET  -2.044650  -2.323490   3.252850
                                CHANNELS 3 Zrotation Xrotation Yrotation
                                JOINT RightFinger01
                                {
                                    OFFSET  -3.088130   0.000000   0.000000
                                    CHANNELS 3 Zrotation Xrotation Yrotation
                                    JOINT RightFinger02
                                    {
                                        OFFSET  -2.639460   0.000000   0.000000
                                        CHANNELS 3 Zrotation Xrotation Yrotation
                                        End Site
                                        {
                                            OFFSET  -2.582190   0.000000   0.000000
                                        }
                                    }
                                }
                            }
                            JOINT RightFinger1
                            {
                                OFFSET  -8.364480   0.000000   3.252850
                                CHANNELS 3 Zrotation Xrotation Yrotation
                                JOINT RightFinger11
                                {
                                    OFFSET  -4.646930   0.000000   0.000000
                                    CHANNELS 3 Zrotation Xrotation Yrotation
                                    JOINT RightFinger12
                                    {
                                        OFFSET  -2.323470   0.000000   0.000000
                                        CHANNELS 3 Zrotation Xrotation Yrotation
                                        End Site
                                        {
                                            OFFSET  -2.273050   0.000000   0.000000
                                        }
                                    }
                                }
                            }
                            JOINT RightFinger2
                            {
                                OFFSET  -8.364480   0.000000   1.078090
                                CHANNELS 3 Zrotation Xrotation Yrotation
                                JOINT RightFinger21
                                {
                                    OFFSET  -5.111620   0.000000   0.000000
                                    CHANNELS 3 Zrotation Xrotation Yrotation
                                    JOINT RightFinger22
                                    {
                                        OFFSET  -2.788160   0.000000   0.000000
                                        CHANNELS 3 Zrotation Xrotation Yrotation
                                        End Site
                                        {
                                            OFFSET  -2.727660   0.000000   0.000000
                                        }
                                    }
                                }
                            }
                            JOINT RightFinger3
                            {
                                OFFSET  -7.899780   0.000000  -1.078090
                                CHANNELS 3 Zrotation Xrotation Yrotation
                                JOINT RightFinger31
                                {
                                    OFFSET  -4.646930   0.000000   0.000000
                                    CHANNELS 3 Zrotation Xrotation Yrotation
                                    JOINT RightFinger32
                                    {
                                        OFFSET  -2.323470   0.000000   0.000000
                                        CHANNELS 3 Zrotation Xrotation Yrotation
                                        End Site
                                        {
                                            OFFSET  -2.273050   0.000000   0.000000
                                        }
                                    }
                                }
                            }
                            JOINT RightFinger4
                            {
                                OFFSET  -7.435090   0.000000  -3.252850
                                CHANNELS 3 Zrotation Xrotation Yrotation
                                JOINT RightFinger41
                                {
                                    OFFSET  -3.717550   0.000000   0.000000
                                    CHANNELS 3 Zrotation Xrotation Yrotation
                                    JOINT RightFinger42
                                    {
                                        OFFSET  -1.858760   0.000000   0.000000
                                        CHANNELS 3 Zrotation Xrotation Yrotation
                                        End Site
                                        {
                                            OFFSET  -1.818440   0.000000   0.000000
                                        }
                                    }
                                }
                            }
                        }
                    }
                }
            }
        }
    }
    JOINT LeftHip
    {
        OFFSET   9.783030   0.000000   0.000000
        CHANNELS 3 Zrotation Xrotation Yrotation
        JOINT LeftKnee
        {
            OFFSET   0.000063 -41.789100   0.000608
            CHANNELS 3 Zrotation Xrotation Yrotation
            JOINT LeftAnkle
            {
                OFFSET   0.000048 -41.133200  -0.000184
                CHANNELS 3 Zrotation Xrotation Yrotation
                JOINT LeftToe
                {
                    OFFSET   0.000000  -6.358960  14.674500
                    CHANNELS 3 Zrotation Xrotation Yrotation
                    End Site
                    {
                        OFFSET   0.000000   0.000000   3.913200
                    }
                }
            }
        }
    }
    JOINT RightHip
    {
        OFFSET  -9.783030   0.000000   0.000000
        CHANNELS 3 Zrotation Xrotation Yrotation
        JOINT RightKnee
        {
            OFFSET   0.000071 -41.789100   0.001239
            CHANNELS 3 Zrotation Xrotation Yrotation
            JOINT RightAnkle
            {
                OFFSET   0.000037 -41.133200  -0.000166
                CHANNELS 3 Zrotation Xrotation Yrotation
                JOINT RightToe
                {
                    OFFSET   0.000000  -6.358960  14.674500
                    CHANNELS 3 Zrotation Xrotation Yrotation
                    End Site
                    {
                        OFFSET   0.000000   0.000000   3.913200
                    }
                }
            }
        }
    }
}
MOTION
Frames: 6
Frame Time:   0.016667
 -0.317143  89.471200   0.065509  -2.095890  -5.444330  -1.329350   0.893416   2.000320   0.144450   1.783410   4.002630   0.257885   0.625913   2.007090  -0.024377   1.031870   4.068670   0.228544  -2.598960  -0.065013   0.334038 -76.212500  14.650000   4.917390  -1.921670  -0.974795 -16.325700  16.493700 -15.273300   5.137470  40.847600  28.700200 -61.762400 -24.466500  -0.004462  -0.001140  -7.241260  -0.000260  -0.000615 -26.754200   6.107560 -11.916200 -22.411200   0.000302   0.000655 -15.687900  -0.015802   0.000499 -27.834300   2.316880  -4.358560 -31.450900  -0.009670  -0.007481 -20.946300  -0.004393  -0.005798 -26.997400   0.722347  -1.407110 -27.014600  -0.002762  -0.001256 -17.991700  -0.000260   0.001137 -29.076100   0.769546  -1.380140 -43.628100   0.003262   0.001115 -29.056300   0.002366  -0.003438   6.497590   1.322170   4.958920  72.510200   8.593990 -11.260900   0.321251  -8.790650  13.292000 -14.598600  -4.285770   0.117582 -44.862700  33.360500  67.750300  21.924700   0.010911  -0.004304   5.962360   0.007840  -0.000915  28.743400   6.087480  10.943200  23.994900  -0.000840  -0.001617  16.791800   0.000151  -0.000918  27.929700   3.286950   6.172370  32.679000   0.004081  -0.003608  21.757300  -0.005082  -0.009306  27.445900   2.500090   4.802580  29.413100   0.002252  -0.000914  19.581000  -0.004124  -0.007700  36.631300  -0.161761  -0.217989  54.960200  -0.005288  -0.003104  36.595000  -0.004963  -0.002661   1.737500   8.370730   2.197410   0.967068   0.592251   7.099120  -1.819830  -4.454820   1.600450   0.000000   0.000000  -0.000000   2.076520   8.910220  -8.195520  -0.344820   0.533487  -8.431330   0.495048  -4.749100   0.845346   0.000000   0.000000  -0.000000
 -0.320206  89.471400   0.057072  -2.095190  -5.459870  -1.320480   0.893361   2.010500   0.145679   1.783270   4.023020   0.260190   0.645332   2.022220  -0.024373   1.063930   4.099220   0.222270  -2.599280  -0.082835   0.333904 -76.239200  14.677200   4.907060  -1.910710  -0.990509 -16.318000  16.496900 -15.272200   5.137450  40.845400  28.704400 -61.768600 -24.473100  -0.004468  -0.001144  -7.241520  -0.000256  -0.000614 -26.759500   6.108160 -11.916200 -22.415900   0.000306   0.000655 -15.691200  -0.015802   0.000499 -27.834200   2.316860  -4.358600 -31.473400  -0.009673  -0.007476 -20.961300  -0.004394  -0.005795 -26.999200   0.722346  -1.410170 -27.026700  -0.002762  -0.001258 -17.999800  -0.000258   0.001137 -29.078300   0.770438  -1.383150 -43.631500   0.003264   0.001116 -29.058600   0.002367  -0.003440   6.505930   1.312560   4.961880  72.501500   8.608040 -11.256300   0.321824  -8.794340  13.292100 -14.608200  -4.288180   0.117946 -44.859400  33.369200  67.764300  21.944500   0.010916  -0.004311   5.972270   0.007842  -0.000910  28.746000   6.090690  10.947600  23.997500  -0.000843  -0.001615  16.795600   0.000149  -0.000915  27.929600   3.286980   6.172430  32.681700   0.004079  -0.003606  21.762100  -0.005083  -0.009305  27.445300   2.503960   4.809970  29.414700   0.002250  -0.000912  19.585700  -0.004125  -0.007699  36.633600  -0.161869  -0.217842  54.960100  -0.005286  -0.003101  36.597400  -0.004962  -0.002661   1.741270   8.380070   2.195900   0.966998   0.591580   7.099120  -1.820150  -4.452120   1.593960   0.000000   0.000000   0.000000   2.084250   8.924300  -8.196090  -0.343283   0.524601  -8.431810   0.492627  -4.736740   0.836733   0.000000   0.000000   0.000000
 -0.325402  89.471800   0.042399  -2.094040  -5.487820  -1.304050   0.893258   2.029300   0.147608   1.782960   4.060660   0.263767   0.682800   2.046670  -0.024369   1.125810   4.148560   0.205471  -2.602020  -0.116814   0.333770 -76.286100  14.730100   4.876790  -1.890870  -1.019320 -16.294200  16.502200 -15.267100   5.137340  40.839400  28.707000 -61.784500 -24.479700  -0.004477  -0.001151  -7.241790  -0.000253  -0.000614 -26.772200   6.111940 -11.916300 -22.426900   0.000309   0.000655 -15.698900  -0.015802   0.000498 -27.834200   2.316830  -4.358640 -31.510400  -0.009677  -0.007468 -20.985900  -0.004394  -0.005790 -27.003200   0.722347  -1.417150 -27.048700  -0.002761  -0.001260 -18.014500  -0.000252   0.001138 -29.086000   0.773377  -1.389960 -43.643100   0.003270   0.001119 -29.066300   0.002372  -0.003444   6.521240   1.291860   4.968850  72.486600   8.640280 -11.248400   0.323069  -8.800860  13.292300 -14.621700  -4.290590   0.118451 -44.850500  33.387100  67.793100  21.980300   0.010921  -0.004324   5.990180   0.007843  -0.000903  28.754100   6.096870  10.954800  24.004900  -0.000847  -0.001606  16.803400   0.000147  -0.000907  27.929500   3.287000   6.172500  32.691500   0.004072  -0.003598  21.772500  -0.005088  -0.009301  27.444400   2.509820   4.820990  29.421600   0.002243  -0.000906  19.594800  -0.004127  -0.007698  36.639600  -0.162048  -0.217695  54.959900  -0.005279  -0.003093  36.603300  -0.004958  -0.002658   1.748860   8.395480   2.192450   0.966927   0.590909   7.099110  -1.820910  -4.447170   1.582660  -0.000000   0.000000  -0.000000   2.096020   8.945020  -8.196820  -0.341719   0.515711  -8.435220   0.489708  -4.724380   0.822031   0.000000   0.000000  -0.000000
 -0.329801  89.472500   0.029442  -2.094270  -5.515060  -1.287340   0.893120   2.048630   0.149182   1.782580   4.099340   0.266547   0.723639   2.063960  -0.025760   1.193260   4.183480   0.178484  -2.611270  -0.152828   0.333804 -76.326700  14.785200   4.827510  -1.872940  -1.046290 -16.253200  16.506900 -15.256800   5.133810  40.830000  28.700800 -61.812300 -24.478900  -0.004482  -0.001161  -7.240720  -0.000253  -0.000623 -26.791600   6.120810 -11.922200 -22.443800   0.000305   0.000657 -15.710700  -0.015800   0.000504 -27.837500   2.316800  -4.358240 -31.538500  -0.009677  -0.007459 -21.004700  -0.004398  -0.005785 -27.008700   0.725587  -1.425190 -27.071900  -0.002753  -0.001261 -18.029900  -0.000243   0.001142 -29.102200   0.778079  -1.397690 -43.667500   0.003279   0.001124 -29.082600   0.002381  -0.003452   6.536260   1.267770   4.976380  72.473500   8.683530 -11.238800   0.324027  -8.805320  13.291300 -14.628200  -4.290570   0.118649 -44.835200  33.407700  67.831000  22.015700   0.010918  -0.004339   6.007860   0.007839  -0.000900  28.772900   6.105550  10.961600  24.021300  -0.000848  -0.001588  16.815100   0.000144  -0.000896  27.929300   3.287000   6.172480  32.717300   0.004060  -0.003585  21.790100  -0.005101  -0.009294  27.443700   2.513880   4.828140  29.440800   0.002234  -0.000895  19.608200  -0.004128  -0.007695  36.651600  -0.162228  -0.218776  54.975100  -0.005267  -0.003082  36.615200  -0.004952  -0.002654   1.757920   8.406040   2.187030   0.966759   0.597659   7.095580  -1.824500  -4.443750   1.573000   0.000000   0.000000   0.000000   2.102560   8.954120  -8.196980  -0.340742   0.538147  -8.443940   0.490326  -4.731690   0.808678  -0.000000   0.000000  -0.000000
 -0.334212  89.473400   0.015619  -2.096290  -5.543670  -1.268950   0.892981   2.069300   0.150056   1.782280   4.140660   0.268061   0.770444   2.081620  -0.028184   1.270530   4.219100   0.144346  -2.627360  -0.194273   0.334041 -76.373000  14.855200   4.757850  -1.850560  -1.079570 -16.197100  16.507000 -15.242300   5.123860  40.817500  28.687800 -61.840900 -24.473000  -0.004488  -0.001172  -7.236510  -0.000252  -0.000636 -26.811500   6.132580 -11.935500 -22.461700   0.000300   0.000659 -15.723200  -0.015796   0.000514 -27.843300   2.316780  -4.357850 -31.567000  -0.009677  -0.007447 -21.023700  -0.004401  -0.005778 -27.014100   0.733568  -1.438470 -27.093600  -0.002739  -0.001262 -18.044300  -0.000231   0.001147 -29.119500   0.785925  -1.410550 -43.693700   0.003292   0.001130 -29.100000   0.002393  -0.003462   6.553310   1.233370   4.991050  72.459700   8.739640 -11.233600   0.325290  -8.813670  13.283600 -14.630700  -4.290390   0.118706 -44.820000  33.430000  67.871900  22.052700   0.010910  -0.004349   6.026360   0.007831  -0.000897  28.786400   6.111260  10.965600  24.032900  -0.000849  -0.001565  16.823000   0.000140  -0.000881  27.929200   3.286950   6.172370  32.735900   0.004046  -0.003569  21.802100  -0.005119  -0.009285  27.443200   2.515970   4.831650  29.454900   0.002221  -0.000881  19.617000  -0.004129  -0.007692  36.659900  -0.162335  -0.219858  54.990400  -0.005251  -0.003066  36.623600  -0.004944  -0.002648   1.768080   8.419290   2.181860   0.966617   0.604411   7.089650  -1.829570  -4.436730   1.562010  -0.000000   0.000000  -0.000000   2.108780   8.963320  -8.196840  -0.339880   0.564188  -8.456010   0.491047  -4.739000   0.796631  -0.000000   0.000000  -0.000000
 -0.338953  89.474100   0.001056  -2.099840  -5.570440  -1.249580   0.892884   2.088450   0.149964   1.782070   4.178980   0.267806   0.821231   2.102370  -0.030358   1.354400   4.260940   0.106221  -2.649660  -0.238004   0.336638 -76.423800  14.942100   4.663260  -1.822620  -1.117800 -16.123300  16.500100 -15.224000   5.105530  40.810800  28.666700 -61.866000 -24.450600  -0.004497  -0.001179  -7.224990  -0.000251  -0.000643 -26.823500   6.149590 -11.959600 -22.474100   0.000299   0.000661 -15.731900  -0.015793   0.000524 -27.847900   2.316810  -4.366240 -31.595300  -0.009684  -0.007431 -21.042500  -0.004401  -0.005768 -27.016800   0.747101  -1.464820 -27.105500  -0.002724  -0.001267 -18.052300  -0.000214   0.001154 -29.129900   0.800619  -1.436280 -43.709900   0.003307   0.001139 -29.110800   0.002408  -0.003473   6.571590   1.185220   5.020850  72.445800   8.803410 -11.236700   0.332450  -8.831190  13.265300 -14.623100  -4.268280   0.116414 -44.808800  33.450400  67.900900  22.086400   0.010896  -0.004347   6.043230   0.007822  -0.000894  28.787800   6.105480  10.953500  24.032700  -0.000855  -0.001539  16.821400   0.000136  -0.000861  27.930000   3.282210   6.163470  32.735400   0.004030  -0.003553  21.801800  -0.005139  -0.009274  27.443500   2.513220   4.826470  29.452800   0.002203  -0.000866  19.615600  -0.004132  -0.007689  36.658100  -0.162264  -0.219553  54.987600  -0.005231  -0.003047  36.621800  -0.004933  -0.002641   1.777710   8.442610   2.179980   0.966275   0.589749   7.084280  -1.832750  -4.417260   1.548400  -0.000000   0.000000   0.000000   2.116700   8.979030  -8.195540  -0.339917   0.568380  -8.470570   0.489281  -4.735190   0.789440  -0.000000   0.000000   0.000000
